<svg xmlns="http://www.w3.org/2000/svg" version="1.1" xmlns:xlink="http://www.w3.org/1999/xlink" xmlns:svgjs="http://svgjs.dev/svgjs" width="1500" height="208" viewBox="0 0 1500 208"><g transform="matrix(1,0,0,1,-0.9090909090909918,-0.6342327564095172)"><svg viewBox="0 0 396 55" data-background-color="#ffffff" preserveAspectRatio="xMidYMid meet" height="208" width="1500" xmlns="http://www.w3.org/2000/svg" xmlns:xlink="http://www.w3.org/1999/xlink"><g id="tight-bounds" transform="matrix(1,0,0,1,0.2400000000000091,0.1677057769352075)"><svg viewBox="0 0 395.52 54.66458844612959" height="54.66458844612959" width="395.52"><g><svg viewBox="0 0 512.0759780779647 70.77372217531659" height="54.66458844612959" width="395.52"><g><rect width="6.3506938350759565" height="70.77372217531659" x="412.144852971403" y="0" fill="#c95555" opacity="1" stroke-width="0" stroke="transparent" fill-opacity="1" class="rect-qz-0" data-fill-palette-color="primary" rx="1%" id="qz-0" data-palette-color="#c95555"></rect></g><g transform="matrix(1,0,0,1,0,0.17605403526197705)"><svg viewBox="0 0 395.52 70.42161410479264" height="70.42161410479264" width="395.52"><g id="textblocktransform"><svg viewBox="0 0 395.52 70.42161410479264" height="70.42161410479264" width="395.52" id="textblock"><g><svg viewBox="0 0 395.52 70.42161410479264" height="70.42161410479264" width="395.52"><g transform="matrix(1,0,0,1,0,0)"><svg width="395.52" viewBox="0.3 -35.35 201.32999999999998 35.85" height="70.42161410479264" data-palette-color="#c95555"><path d="M0.3-0.25L0.3-0.25 6.5-34.6Q6.55-34.8 6.75-34.8L6.75-34.8 14-34.8Q14.2-34.8 14.25-34.6L14.25-34.6 20.2-0.25Q20.25 0 20 0L20 0 14.45 0Q14.25 0 14.2-0.25L14.2-0.25 13.65-3.9 6.85-3.9 6.3-0.25Q6.25 0 6.05 0L6.05 0 0.5 0Q0.3 0 0.3-0.25ZM10.1-23.3L7.85-9.25 12.65-9.25 10.6-23.3 10.3-25.15 10.1-23.3ZM29.2 0L23.6 0Q23.35 0 23.35-0.25L23.35-0.25 23.45-34.6Q23.45-34.8 23.65-34.8L23.65-34.8 33.25-34.8Q37.85-34.8 40.52-32 43.2-29.2 43.2-24.4L43.2-24.4Q43.2-20.85 41.8-18.25 40.4-15.65 38.15-14.25 35.9-12.85 33.25-12.85L33.25-12.85 29.45-12.85 29.45-0.25Q29.45 0 29.2 0L29.2 0ZM29.45-28.8L29.45-18.9 33.25-18.9Q34.85-18.9 36.02-20.43 37.2-21.95 37.2-24.4L37.2-24.4Q37.2-26.35 36.15-27.6 35.1-28.85 33.25-28.85L33.25-28.85 29.45-28.8ZM52.49 0L46.84 0Q46.59 0 46.59-0.25L46.59-0.25 46.64-34.6Q46.64-34.8 46.84-34.8L46.84-34.8 52.45-34.8Q52.64-34.8 52.64-34.6L52.64-34.6 52.7-0.25Q52.7 0 52.49 0L52.49 0ZM70.34 0L64.69 0Q64.49 0 64.49-0.25L64.49-0.25 64.59-34.6Q64.59-34.8 64.79-34.8L64.79-34.8 70.89-34.8Q71.09-34.8 71.24-34.6L71.24-34.6 75.79-28 80.34-34.6Q80.49-34.8 80.69-34.8L80.69-34.8 86.84-34.8Q87.04-34.8 87.04-34.6L87.04-34.6 87.14-0.25Q87.14 0 86.94 0L86.94 0 81.29 0Q81.09 0 81.09-0.25L81.09-0.25 81.04-25.75 75.79-18.15 70.59-25.75 70.54-0.25Q70.54 0 70.34 0L70.34 0ZM100.59 0.5L100.59 0.5Q97.89 0.5 95.66-0.88 93.44-2.25 92.09-4.53 90.74-6.8 90.74-9.55L90.74-9.55 90.79-25.4Q90.79-28.15 92.11-30.4 93.44-32.65 95.69-34 97.94-35.35 100.59-35.35L100.59-35.35Q103.29-35.35 105.49-34 107.69-32.65 109.01-30.4 110.34-28.15 110.34-25.4L110.34-25.4 110.39-9.55Q110.39-6.8 109.06-4.53 107.74-2.25 105.51-0.88 103.29 0.5 100.59 0.5ZM100.59-5.55L100.59-5.55Q102.09-5.55 103.21-6.78 104.34-8 104.34-9.55L104.34-9.55 104.29-25.4Q104.29-27.05 103.24-28.2 102.19-29.35 100.59-29.35L100.59-29.35Q99.04-29.35 97.94-28.23 96.84-27.1 96.84-25.4L96.84-25.4 96.84-9.55Q96.84-7.9 97.94-6.73 99.04-5.55 100.59-5.55ZM123.39 0.5L123.39 0.5Q120.64 0.5 118.41-0.88 116.19-2.25 114.89-4.55 113.59-6.85 113.59-9.7L113.59-9.7 113.64-25.3Q113.64-28.05 114.91-30.33 116.19-32.6 118.41-33.98 120.64-35.35 123.39-35.35L123.39-35.35Q126.14-35.35 128.34-34 130.53-32.65 131.84-30.38 133.13-28.1 133.13-25.3L133.13-25.3 133.13-23Q133.13-22.8 132.94-22.8L132.94-22.8 127.34-22.8Q127.14-22.8 127.14-23L127.14-23 127.14-25.3Q127.14-26.95 126.06-28.15 124.98-29.35 123.39-29.35L123.39-29.35Q121.59-29.35 120.64-28.13 119.69-26.9 119.69-25.3L119.69-25.3 119.69-9.7Q119.69-7.85 120.76-6.7 121.84-5.55 123.39-5.55L123.39-5.55Q124.98-5.55 126.06-6.83 127.14-8.1 127.14-9.7L127.14-9.7 127.14-12Q127.14-12.2 127.34-12.2L127.34-12.2 132.99-12.2Q133.19-12.2 133.19-12L133.19-12 133.19-9.7Q133.19-6.85 131.86-4.55 130.53-2.25 128.34-0.88 126.14 0.5 123.39 0.5ZM142.68 0L137.03 0Q136.83 0 136.83-0.25L136.83-0.25 136.93-34.55Q136.93-34.8 137.13-34.8L137.13-34.8 142.73-34.8Q142.93-34.8 142.93-34.55L142.93-34.55 142.93-22.7 150.78-34.6Q150.93-34.8 151.13-34.8L151.13-34.8 156.88-34.8Q157.08-34.8 156.98-34.6L156.98-34.6 148.33-20.8 158.03-0.2Q158.13 0 157.78 0L157.78 0 151.68 0Q151.43 0 151.38-0.2L151.38-0.2 144.63-14.9 142.88-12.15 142.88-0.25Q142.88 0 142.68 0L142.68 0ZM176.63 0L160.48 0Q160.28 0 160.28-0.25L160.28-0.25 160.33-34.6Q160.33-34.8 160.53-34.8L160.53-34.8 176.58-34.8Q176.78-34.8 176.78-34.55L176.78-34.55 176.78-28.95Q176.78-28.75 176.58-28.75L176.58-28.75 166.33-28.75 166.33-20.95 176.58-20.95Q176.78-20.95 176.78-20.75L176.78-20.75 176.83-15.1Q176.83-14.9 176.63-14.9L176.63-14.9 166.33-14.9 166.33-6.15 176.63-6.15Q176.83-6.15 176.83-5.9L176.83-5.9 176.83-0.2Q176.83 0 176.63 0L176.63 0ZM187.13 0L181.48 0Q181.28 0 181.28-0.25L181.28-0.25 181.38-34.6Q181.38-34.8 181.58-34.8L181.58-34.8 191.68-34.8Q194.38-34.8 196.65-33.48 198.93-32.15 200.28-29.93 201.63-27.7 201.63-24.9L201.63-24.9Q201.63-23.05 201.08-21.58 200.53-20.1 199.78-19.07 199.03-18.05 198.43-17.55L198.43-17.55Q201.13-14.55 201.13-10.5L201.13-10.5 201.18-0.25Q201.18 0 200.93 0L200.93 0 195.28 0Q195.08 0 195.08-0.15L195.08-0.15 195.08-10.5Q195.08-12.3 193.8-13.63 192.53-14.95 190.68-14.95L190.68-14.95 187.38-14.95 187.33-0.25Q187.33 0 187.13 0L187.13 0ZM187.38-28.8L187.38-20.95 191.68-20.95Q193.23-20.95 194.43-22.1 195.63-23.25 195.63-24.9L195.63-24.9Q195.63-26.5 194.45-27.65 193.28-28.8 191.68-28.8L191.68-28.8 187.38-28.8Z" opacity="1" transform="matrix(1,0,0,1,0,0)" fill="#c95555" class="wordmark-text-0" data-fill-palette-color="primary" id="text-0"></path></svg></g></svg></g></svg></g></svg></g><g transform="matrix(1,0,0,1,435.12039977788197,0.17605403526197705)"><svg viewBox="0 0 76.95557830008268 70.42161410479264" height="70.42161410479264" width="76.95557830008268"><g><svg xmlns:x="http://ns.adobe.com/Extensibility/1.0/" xmlns:i="http://ns.adobe.com/AdobeIllustrator/10.0/" xmlns:graph="http://ns.adobe.com/Graphs/1.0/" xmlns="http://www.w3.org/2000/svg" xmlns:xlink="http://www.w3.org/1999/xlink" version="1.1" x="0" y="0" viewBox="2.3 6.3999999999999995 95.4 87.30000000000001" enable-background="new 0 0 100 100" xml:space="preserve" height="70.42161410479264" width="76.95557830008268" class="icon-icon-0" data-fill-palette-color="accent" id="icon-0"><g fill="#001f3f" data-fill-palette-color="accent"><g fill="#001f3f" data-fill-palette-color="accent"><path d="M10 75.9h31.4v8.6h-6.1c-1 0-1.9 0.8-1.9 1.9v5.4c0 1 0.8 1.9 1.9 1.9h29.5c1 0 1.9-0.8 1.9-1.9v-5.4c0-1-0.8-1.9-1.9-1.9h-6.1v-8.6H90c4.3 0 7.7-3.5 7.7-7.7V14.1c0-4.3-3.5-7.7-7.7-7.7H10c-4.3 0-7.7 3.5-7.7 7.7v54.1C2.3 72.5 5.7 75.9 10 75.9zM12.8 16.9h74.5v48.4H12.8V16.9zM44.3 33.1l-8.6 8.6 8.6 8.6L38 56.7l-15-15 15-15L44.3 33.1zM62 26.8l15 15-15 15-6.4-6.4 8.6-8.6-8.6-8.6L62 26.8z" fill="#001f3f" data-fill-palette-color="accent"></path></g></g></svg><g></g></g></svg></g></svg></g><defs></defs></svg><rect width="395.52" height="54.66458844612959" fill="none" stroke="none" visibility="hidden"></rect></g></svg></g></svg>