<svg version="1.1" preserveAspectRatio="none" xmlns="http://www.w3.org/2000/svg" width="300" height="300" viewBox="0 0 500 500"><rect width="100%" height="100%" fill="#eee" fill-opacity="1"/><svg viewBox="519.2695 377.9663 415.0211 120" width="333" height="96.28426120985173" x="83.5px" y="201.8579px" xmlns="http://www.w3.org/2000/svg" xmlns:xlink="http://www.w3.org/1999/xlink" preserveAspectRatio="none"><defs></defs><style>.aIptOCySncolors-3 {fill:#4348FF;fill-opacity:1;}.aIptOCySncolors-4 {fill-opacity:1;}.aIptOCySncolors-5 {fill:#FF8965;fill-opacity:1;}.aIptOCySncolors-6 {fill-opacity:1;}.aIptOCySncolors-7 {fill:#C6CEFF;fill-opacity:1;}.companyName {fill:#FE6232;fill-opacity:1;}.icon1 {fill:#FE6232;fill-opacity:1;}.icon2 {fill:#9545ED;fill-opacity:1;}.icon3 {fill:#F41616;fill-opacity:1;}.icon3-str {stroke:#F41616;stroke-opacity:1;}.shape {fill:#FFFFFF;fill-opacity:1;}.shapeStroke-str {stroke:#FE6232;stroke-opacity:1;}</style><g opacity="1" transform="rotate(0 519.2695 377.9663)">
<svg width="120.0003" height="120" x="519.2695" y="377.9663" version="1.1" preserveAspectRatio="none" viewBox="0 0 120.0003 120">
  <defs><rect x="0" y="0" width="120.0003" height="120" rx="150px" ry="150px" id="id-5kldYRpCP1711605052015"></rect></defs><use class="shape shapeStroke-str" style="stroke-width:0;" xlink:href="#id-5kldYRpCP1711605052015"></use>
</svg>
</g><g opacity="1" transform="rotate(0 544.2695 405.7662)">
<svg width="70.0003" height="64.4002" x="544.2695" y="405.7662" version="1.1" preserveAspectRatio="none" viewBox="3 3 25 23">
  <g transform="matrix(1 0 0 1 0 0)" class="icon1"><title>interface_034-code-css-window-application</title><desc>Created with Sketch.</desc><g stroke-width="1" fill-rule="evenodd"><g transform="translate(-450.000000, -135.000000)"><path d="M453,138 L478,138 L478,161 L453,161 L453,138 Z M454,139 L477,139 L477,142 L454,142 L454,139 Z M454,143 L477,143 L477,160 L454,160 L454,143 Z M455,140 L456,140 L456,141 L455,141 L455,140 Z M457,140 L458,140 L458,141 L457,141 L457,140 Z M459,140 L460,140 L460,141 L459,141 L459,140 Z M469,149 L468,148 L469.299988,148 L470,148.699997 L470,150 L471,151 L470,152 L470,153.300003 L469.299988,154 L468,154 L469,153 L469,151.649994 L469.779724,151 L469,150.3479 L469,149 Z M462,149 L463,148 L461.700012,148 L461,148.699997 L461,150 L460,151 L461,152 L461,153.300003 L461.700012,154 L463,154 L462,153 L462,151.649994 L461.220276,151 L462,150.3479 L462,149 Z M463.5,152 L463.933013,152.25 L463.933013,152.75 L463.5,153 L463.066987,152.75 L463.066987,152.25 L463.5,152 Z M467.5,152 L467.933013,152.25 L467.933013,152.75 L467.5,153 L467.066987,152.75 L467.066987,152.25 L467.5,152 Z M465.5,152 L465.933013,152.25 L465.933013,152.75 L465.5,153 L465.066987,152.75 L465.066987,152.25 L465.5,152 Z"></path></g></g></g>
</svg>
</g><g opacity="1" transform="rotate(0 663.2698 377.9663)">
<svg width="271.0208" height="120" x="663.2698" y="377.9663" version="1.1" preserveAspectRatio="none" viewBox="3.32 -31.48 162.16000000000003 71.8">
  <g transform="matrix(1 0 0 1 0 0)" class="companyName"><path id="id-D6z1nYkh9" d="M16.16-28.48Q20.04-28.48 22.92-26.96Q25.80-25.44 27.40-22.48Q29-19.52 29-15.32L29-15.32L29 0L22.52 0L22.52-6.72L9.72-6.72L9.72 0L3.32 0L3.32-15.32Q3.32-19.52 4.92-22.48Q6.52-25.44 9.40-26.96Q12.28-28.48 16.16-28.48L16.16-28.48ZM9.72-11.92L22.52-11.92L22.52-15.92Q22.52-19.40 20.80-21.18Q19.08-22.96 16.12-22.96L16.12-22.96Q13.12-22.96 11.42-21.18Q9.72-19.40 9.72-15.92L9.72-15.92L9.72-11.92Z M47.68-21.84Q50.68-21.84 53.14-20.46Q55.60-19.08 57-16.58Q58.40-14.08 58.40-10.76L58.40-10.76Q58.40-7.44 57-4.94Q55.60-2.44 53.14-1.06Q50.68 0.32 47.68 0.32L47.68 0.32Q43.56 0.32 41.20-2.28L41.20-2.28L41.20 7.76L34.96 7.76L34.96-21.52L40.92-21.52L40.92-19.04Q43.24-21.84 47.68-21.84L47.68-21.84ZM46.60-4.80Q49-4.80 50.54-6.42Q52.08-8.04 52.08-10.76L52.08-10.76Q52.08-13.48 50.54-15.10Q49-16.72 46.60-16.72L46.60-16.72Q44.20-16.72 42.66-15.10Q41.12-13.48 41.12-10.76L41.12-10.76Q41.12-8.04 42.66-6.42Q44.20-4.80 46.60-4.80L46.60-4.80Z M62.56 0L62.56-21.52L68.80-21.52L68.80 0L62.56 0ZM65.68-24.52Q63.96-24.52 62.88-25.52Q61.80-26.52 61.80-28L61.80-28Q61.80-29.48 62.88-30.48Q63.96-31.48 65.68-31.48L65.68-31.48Q67.40-31.48 68.48-30.52Q69.56-29.56 69.56-28.12L69.56-28.12Q69.56-26.56 68.48-25.54Q67.40-24.52 65.68-24.52L65.68-24.52Z M35.28 11.52Q40.24 11.52 43 14.42Q45.76 17.32 45.76 22.80L45.76 22.80L45.76 40L39.28 40L39.28 23Q39.28 20.04 37.74 18.54Q36.20 17.04 33.68 17.04L33.68 17.04Q30.92 17.04 29.28 18.62Q27.64 20.20 27.64 23.40L27.64 23.40L27.64 40L21.16 40L21.16 23Q21.16 20.04 19.72 18.54Q18.28 17.04 15.80 17.04L15.80 17.04Q13.08 17.04 11.44 18.62Q9.80 20.20 9.80 23.40L9.80 23.40L9.80 40L3.32 40L3.32 12L9.60 12L9.60 15.44Q10.88 13.56 13 12.54Q15.12 11.52 17.88 11.52L17.88 11.52Q20.76 11.52 22.92 12.58Q25.08 13.64 26.24 15.64L26.24 15.64Q27.68 13.64 30.02 12.58Q32.36 11.52 35.28 11.52L35.28 11.52Z M61.96 40.32Q58.56 40.32 55.86 38.90Q53.16 37.48 51.64 34.96Q50.12 32.44 50.12 29.24L50.12 29.24Q50.12 26.04 51.64 23.52Q53.16 21 55.86 19.58Q58.56 18.16 61.96 18.16L61.96 18.16Q65.36 18.16 68.04 19.58Q70.72 21 72.24 23.52Q73.76 26.04 73.76 29.24L73.76 29.24Q73.76 32.44 72.24 34.96Q70.72 37.48 68.04 38.90Q65.36 40.32 61.96 40.32L61.96 40.32ZM61.96 35.20Q64.36 35.20 65.90 33.58Q67.44 31.96 67.44 29.24L67.44 29.24Q67.44 26.52 65.90 24.90Q64.36 23.28 61.96 23.28L61.96 23.28Q59.56 23.28 58 24.90Q56.44 26.52 56.44 29.24L56.44 29.24Q56.44 31.96 58 33.58Q59.56 35.20 61.96 35.20L61.96 35.20Z M88.32 40.32Q84.88 40.32 82.14 38.90Q79.40 37.48 77.86 34.96Q76.32 32.44 76.32 29.24L76.32 29.24Q76.32 26.04 77.86 23.52Q79.40 21 82.14 19.58Q84.88 18.16 88.32 18.16L88.32 18.16Q91.72 18.16 94.26 19.58Q96.80 21 97.96 23.64L97.96 23.64L93.12 26.24Q91.44 23.28 88.28 23.28L88.28 23.28Q85.84 23.28 84.24 24.88Q82.64 26.48 82.64 29.24L82.64 29.24Q82.64 32 84.24 33.60Q85.84 35.20 88.28 35.20L88.28 35.20Q91.48 35.20 93.12 32.24L93.12 32.24L97.96 34.88Q96.80 37.44 94.26 38.88Q91.72 40.32 88.32 40.32L88.32 40.32Z M117.44 40L110.64 31.56L107.64 34.52L107.64 40L101.40 40L101.40 10.32L107.64 10.32L107.64 27.12L116.76 18.48L124.20 18.48L115.24 27.60L125.00 40L117.44 40Z M137.72 35.32Q139.40 35.32 140.70 34.82Q142 34.32 143.12 33.24L143.12 33.24L146.44 36.84Q143.40 40.32 137.56 40.32L137.56 40.32Q133.92 40.32 131.12 38.90Q128.32 37.48 126.80 34.96Q125.28 32.44 125.28 29.24L125.28 29.24Q125.28 26.08 126.78 23.54Q128.28 21 130.90 19.58Q133.52 18.16 136.80 18.16L136.80 18.16Q139.88 18.16 142.40 19.46Q144.92 20.76 146.42 23.22Q147.92 25.68 147.92 29.04L147.92 29.04L132 32.12Q132.68 33.72 134.14 34.52Q135.60 35.32 137.72 35.32L137.72 35.32ZM136.80 22.88Q134.44 22.88 132.96 24.40Q131.48 25.92 131.40 28.60L131.40 28.60L141.88 26.56Q141.44 24.88 140.08 23.88Q138.72 22.88 136.80 22.88L136.80 22.88Z M158.08 21.32Q159.20 19.76 161.10 18.96Q163 18.16 165.48 18.16L165.48 18.16L165.48 23.92Q164.44 23.84 164.08 23.84L164.08 23.84Q161.40 23.84 159.88 25.34Q158.36 26.84 158.36 29.84L158.36 29.84L158.36 40L152.12 40L152.12 18.48L158.08 18.48L158.08 21.32Z"/></g>
</svg>
</g></svg></svg>